<?xml version="1.0" standalone="no"?>
<!DOCTYPE svg PUBLIC "-//W3C//DTD SVG 20010904//EN"
 "http://www.w3.org/TR/2001/REC-SVG-20010904/DTD/svg10.dtd">
<svg version="1.0" xmlns="http://www.w3.org/2000/svg"
 width="200.000000pt" height="200.000000pt" viewBox="0 0 200.000000 200.000000"
 preserveAspectRatio="xMidYMid meet">
<metadata>
Created by potrace 1.11, written by Peter Selinger 2001-2013
</metadata>
<g transform="translate(0.000000,200.000000) scale(0.100000,-0.100000)"
fill="#000000" stroke="none">
<path d="M562 1829 l-53 -21 45 -46 c120 -124 193 -329 120 -340 -32 -5 -49
23 -108 177 -30 79 -65 154 -77 167 -33 35 -78 39 -171 16 -48 -12 -103 -19
-135 -17 -57 4 -59 1 -42 -41 10 -29 13 -150 4 -193 -2 -13 -12 -47 -22 -75
-21 -63 -23 -163 -4 -199 8 -15 34 -36 58 -48 49 -24 88 -23 276 5 93 14 205
15 227 1 20 -12 -30 -63 -87 -90 -137 -62 -336 -82 -475 -46 -38 10 -68 16
-68 15 0 -1 19 -13 43 -27 64 -38 95 -73 118 -137 13 -36 39 -78 70 -111 27
-30 62 -81 78 -114 51 -105 96 -128 176 -88 69 35 313 114 370 120 46 5 56 3
61 -11 9 -23 -8 -39 -81 -74 -102 -50 -327 -132 -363 -132 -11 0 -10 -3 1 -15
17 -16 193 -125 203 -125 3 0 20 -6 37 -14 63 -28 113 -39 182 -41 193 -6 335
115 352 301 l6 68 34 -40 c44 -51 120 -181 224 -381 82 -160 84 -163 101 -141
20 27 17 33 -90 210 -38 62 -86 147 -107 188 -48 93 -75 130 -139 198 l-50 52
44 0 c174 2 245 37 290 143 13 29 23 76 25 111 5 132 -51 240 -258 490 -18 21
-35 44 -39 50 -9 13 -27 -9 -29 -34 0 -8 -2 -24 -5 -35 -2 -11 -6 -80 -8 -153
-6 -186 -37 -269 -98 -260 -34 5 -33 35 1 110 72 155 86 345 34 456 -19 39
-121 93 -229 121 l-71 18 27 -56 c58 -117 82 -348 46 -433 -18 -42 -28 -50
-49 -43 -38 15 -43 52 -34 243 4 78 1 115 -10 150 -32 93 -89 151 -179 178
-63 19 -109 17 -172 -7z m193 -897 c-30 -29 -114 -60 -175 -66 -30 -3 -50 -3
-45 0 81 36 204 83 220 84 19 0 19 0 0 -18z"/>
</g>
</svg>
